<?xml version="1.0" encoding="UTF-8"?>
<svg xmlns="http://www.w3.org/2000/svg" xmlns:xlink="http://www.w3.org/1999/xlink" stroke-dasharray="none" shape-rendering="auto" font-family="'Dialog'" width="924" text-rendering="auto" fill-opacity="1" contentScriptType="text/ecmascript" color-interpolation="auto" color-rendering="auto" preserveAspectRatio="xMidYMid meet" font-size="12" fill="black" stroke="black" image-rendering="auto" stroke-miterlimit="10" zoomAndPan="magnify" version="1.0" stroke-linecap="square" stroke-linejoin="miter" contentStyleType="text/css" font-style="normal" height="421" stroke-width="1" stroke-dashoffset="0" font-weight="normal" stroke-opacity="1">
<!--Generated by the Batik Graphics2D SVG Generator-->
<defs id="genericDefs"/>
<g>
<defs id="defs1">
<clipPath clipPathUnits="userSpaceOnUse" id="clipPath1">
<path d="M37 23 L887 23 L887 398 L37 398 L37 23 Z"/>
</clipPath>
<clipPath clipPathUnits="userSpaceOnUse" id="clipPath2">
<path d="M-1 -1 L925 -1 L925 422 L-1 422 L-1 -1 Z"/>
</clipPath>
</defs>
<g fill="white" text-rendering="geometricPrecision" font-family="'Segoe UI'" stroke-linejoin="round" stroke="white" stroke-width="0" stroke-miterlimit="0">
<rect x="38" y="24" clip-path="url(#clipPath1)" width="848" height="373" stroke="none"/>
</g>
<g stroke-linecap="butt" fill="rgb(204,204,204)" text-rendering="geometricPrecision" font-family="'Segoe UI'" stroke-dasharray="3,3" stroke="rgb(204,204,204)">
<line clip-path="url(#clipPath1)" fill="none" x1="38" x2="886" y1="397" y2="397"/>
<line clip-path="url(#clipPath1)" fill="none" x1="38" x2="886" y1="334" y2="334"/>
<line clip-path="url(#clipPath1)" fill="none" x1="38" x2="886" y1="272" y2="272"/>
<line clip-path="url(#clipPath1)" fill="none" x1="38" x2="886" y1="210" y2="210"/>
<line clip-path="url(#clipPath1)" fill="none" x1="38" x2="886" y1="148" y2="148"/>
<line clip-path="url(#clipPath1)" fill="none" x1="38" x2="886" y1="86" y2="86"/>
<line clip-path="url(#clipPath1)" fill="none" x1="38" x2="886" y1="24" y2="24"/>
<line clip-path="url(#clipPath1)" fill="none" x1="38" x2="247" y1="397" y2="397" stroke-dasharray="none" stroke="black"/>
<rect x="247" y="117" clip-path="url(#clipPath1)" fill="rgb(0,0,139)" width="209" stroke-dasharray="none" height="280" stroke="none"/>
<rect x="247" y="117" clip-path="url(#clipPath1)" fill="none" width="209" stroke-dasharray="none" height="280" stroke="black"/>
<rect x="456" y="382" clip-path="url(#clipPath1)" fill="rgb(0,0,139)" width="210" stroke-dasharray="none" height="15" stroke="none"/>
<rect x="456" y="382" clip-path="url(#clipPath1)" fill="none" width="210" stroke-dasharray="none" height="15" stroke="black"/>
<rect x="666" y="380" clip-path="url(#clipPath1)" fill="rgb(0,0,139)" width="209" stroke-dasharray="none" height="17" stroke="none"/>
<rect x="666" y="380" clip-path="url(#clipPath1)" fill="none" width="209" stroke-dasharray="none" height="17" stroke="black"/>
<rect x="38" y="24" clip-path="url(#clipPath2)" fill="none" width="848" stroke-dasharray="none" height="373" stroke="black"/>
</g>
<g text-rendering="geometricPrecision" font-size="13" font-family="'Arial'" stroke-linecap="butt">
<line clip-path="url(#clipPath2)" fill="none" x1="38" x2="886" y1="22" y2="22"/>
<line clip-path="url(#clipPath2)" fill="none" x1="38" x2="886" y1="399" y2="399"/>
<text xml:space="preserve" x="462" y="417" clip-path="url(#clipPath2)" stroke="none"/>
<line clip-path="url(#clipPath2)" fill="none" x1="38" x2="38" y1="18" y2="22"/>
<line clip-path="url(#clipPath2)" fill="none" x1="38" x2="38" y1="403" y2="399"/>
<text font-size="11" x="37" y="14" clip-path="url(#clipPath2)" stroke="none" xml:space="preserve">0</text>
<text font-size="11" x="37" y="415" clip-path="url(#clipPath2)" stroke="none" xml:space="preserve">0</text>
<line clip-path="url(#clipPath2)" fill="none" x1="58" x2="58" y1="20" y2="22"/>
<line clip-path="url(#clipPath2)" fill="none" x1="58" x2="58" y1="401" y2="399"/>
<line clip-path="url(#clipPath2)" fill="none" x1="79" x2="79" y1="20" y2="22"/>
<line clip-path="url(#clipPath2)" fill="none" x1="79" x2="79" y1="401" y2="399"/>
<line clip-path="url(#clipPath2)" fill="none" x1="100" x2="100" y1="20" y2="22"/>
<line clip-path="url(#clipPath2)" fill="none" x1="100" x2="100" y1="401" y2="399"/>
<line clip-path="url(#clipPath2)" fill="none" x1="121" x2="121" y1="20" y2="22"/>
<line clip-path="url(#clipPath2)" fill="none" x1="121" x2="121" y1="401" y2="399"/>
<line clip-path="url(#clipPath2)" fill="none" x1="142" x2="142" y1="18" y2="22"/>
<line clip-path="url(#clipPath2)" fill="none" x1="142" x2="142" y1="403" y2="399"/>
<text font-size="11" x="136" y="14" clip-path="url(#clipPath2)" stroke="none" xml:space="preserve">0.5</text>
<text font-size="11" x="136" y="415" clip-path="url(#clipPath2)" stroke="none" xml:space="preserve">0.5</text>
<line clip-path="url(#clipPath2)" fill="none" x1="163" x2="163" y1="20" y2="22"/>
<line clip-path="url(#clipPath2)" fill="none" x1="163" x2="163" y1="401" y2="399"/>
<line clip-path="url(#clipPath2)" fill="none" x1="184" x2="184" y1="20" y2="22"/>
<line clip-path="url(#clipPath2)" fill="none" x1="184" x2="184" y1="401" y2="399"/>
<line clip-path="url(#clipPath2)" fill="none" x1="205" x2="205" y1="20" y2="22"/>
<line clip-path="url(#clipPath2)" fill="none" x1="205" x2="205" y1="401" y2="399"/>
<line clip-path="url(#clipPath2)" fill="none" x1="226" x2="226" y1="20" y2="22"/>
<line clip-path="url(#clipPath2)" fill="none" x1="226" x2="226" y1="401" y2="399"/>
<line clip-path="url(#clipPath2)" fill="none" x1="247" x2="247" y1="18" y2="22"/>
<line clip-path="url(#clipPath2)" fill="none" x1="247" x2="247" y1="403" y2="399"/>
<text font-size="11" x="241" y="14" clip-path="url(#clipPath2)" stroke="none" xml:space="preserve">1.0</text>
<text font-size="11" x="241" y="415" clip-path="url(#clipPath2)" stroke="none" xml:space="preserve">1.0</text>
<line clip-path="url(#clipPath2)" fill="none" x1="268" x2="268" y1="20" y2="22"/>
<line clip-path="url(#clipPath2)" fill="none" x1="268" x2="268" y1="401" y2="399"/>
<line clip-path="url(#clipPath2)" fill="none" x1="289" x2="289" y1="20" y2="22"/>
<line clip-path="url(#clipPath2)" fill="none" x1="289" x2="289" y1="401" y2="399"/>
<line clip-path="url(#clipPath2)" fill="none" x1="310" x2="310" y1="20" y2="22"/>
<line clip-path="url(#clipPath2)" fill="none" x1="310" x2="310" y1="401" y2="399"/>
<line clip-path="url(#clipPath2)" fill="none" x1="331" x2="331" y1="20" y2="22"/>
<line clip-path="url(#clipPath2)" fill="none" x1="331" x2="331" y1="401" y2="399"/>
<line clip-path="url(#clipPath2)" fill="none" x1="352" x2="352" y1="18" y2="22"/>
<line clip-path="url(#clipPath2)" fill="none" x1="352" x2="352" y1="403" y2="399"/>
<text font-size="11" x="346" y="14" clip-path="url(#clipPath2)" stroke="none" xml:space="preserve">1.5</text>
<text font-size="11" x="346" y="415" clip-path="url(#clipPath2)" stroke="none" xml:space="preserve">1.5</text>
<line clip-path="url(#clipPath2)" fill="none" x1="373" x2="373" y1="20" y2="22"/>
<line clip-path="url(#clipPath2)" fill="none" x1="373" x2="373" y1="401" y2="399"/>
<line clip-path="url(#clipPath2)" fill="none" x1="393" x2="393" y1="20" y2="22"/>
<line clip-path="url(#clipPath2)" fill="none" x1="393" x2="393" y1="401" y2="399"/>
<line clip-path="url(#clipPath2)" fill="none" x1="414" x2="414" y1="20" y2="22"/>
<line clip-path="url(#clipPath2)" fill="none" x1="414" x2="414" y1="401" y2="399"/>
<line clip-path="url(#clipPath2)" fill="none" x1="435" x2="435" y1="20" y2="22"/>
<line clip-path="url(#clipPath2)" fill="none" x1="435" x2="435" y1="401" y2="399"/>
<line clip-path="url(#clipPath2)" fill="none" x1="456" x2="456" y1="18" y2="22"/>
<line clip-path="url(#clipPath2)" fill="none" x1="456" x2="456" y1="403" y2="399"/>
<text font-size="11" x="450" y="14" clip-path="url(#clipPath2)" stroke="none" xml:space="preserve">2.0</text>
<text font-size="11" x="450" y="415" clip-path="url(#clipPath2)" stroke="none" xml:space="preserve">2.0</text>
<line clip-path="url(#clipPath2)" fill="none" x1="477" x2="477" y1="20" y2="22"/>
<line clip-path="url(#clipPath2)" fill="none" x1="477" x2="477" y1="401" y2="399"/>
<line clip-path="url(#clipPath2)" fill="none" x1="498" x2="498" y1="20" y2="22"/>
<line clip-path="url(#clipPath2)" fill="none" x1="498" x2="498" y1="401" y2="399"/>
<line clip-path="url(#clipPath2)" fill="none" x1="519" x2="519" y1="20" y2="22"/>
<line clip-path="url(#clipPath2)" fill="none" x1="519" x2="519" y1="401" y2="399"/>
<line clip-path="url(#clipPath2)" fill="none" x1="540" x2="540" y1="20" y2="22"/>
<line clip-path="url(#clipPath2)" fill="none" x1="540" x2="540" y1="401" y2="399"/>
<line clip-path="url(#clipPath2)" fill="none" x1="561" x2="561" y1="18" y2="22"/>
<line clip-path="url(#clipPath2)" fill="none" x1="561" x2="561" y1="403" y2="399"/>
<text font-size="11" x="555" y="14" clip-path="url(#clipPath2)" stroke="none" xml:space="preserve">2.5</text>
<text font-size="11" x="555" y="415" clip-path="url(#clipPath2)" stroke="none" xml:space="preserve">2.5</text>
<line clip-path="url(#clipPath2)" fill="none" x1="582" x2="582" y1="20" y2="22"/>
<line clip-path="url(#clipPath2)" fill="none" x1="582" x2="582" y1="401" y2="399"/>
<line clip-path="url(#clipPath2)" fill="none" x1="603" x2="603" y1="20" y2="22"/>
<line clip-path="url(#clipPath2)" fill="none" x1="603" x2="603" y1="401" y2="399"/>
<line clip-path="url(#clipPath2)" fill="none" x1="624" x2="624" y1="20" y2="22"/>
<line clip-path="url(#clipPath2)" fill="none" x1="624" x2="624" y1="401" y2="399"/>
<line clip-path="url(#clipPath2)" fill="none" x1="645" x2="645" y1="20" y2="22"/>
<line clip-path="url(#clipPath2)" fill="none" x1="645" x2="645" y1="401" y2="399"/>
<line clip-path="url(#clipPath2)" fill="none" x1="666" x2="666" y1="18" y2="22"/>
<line clip-path="url(#clipPath2)" fill="none" x1="666" x2="666" y1="403" y2="399"/>
<text font-size="11" x="660" y="14" clip-path="url(#clipPath2)" stroke="none" xml:space="preserve">3.0</text>
<text font-size="11" x="660" y="415" clip-path="url(#clipPath2)" stroke="none" xml:space="preserve">3.0</text>
<line clip-path="url(#clipPath2)" fill="none" x1="687" x2="687" y1="20" y2="22"/>
<line clip-path="url(#clipPath2)" fill="none" x1="687" x2="687" y1="401" y2="399"/>
<line clip-path="url(#clipPath2)" fill="none" x1="708" x2="708" y1="20" y2="22"/>
<line clip-path="url(#clipPath2)" fill="none" x1="708" x2="708" y1="401" y2="399"/>
<line clip-path="url(#clipPath2)" fill="none" x1="728" x2="728" y1="20" y2="22"/>
<line clip-path="url(#clipPath2)" fill="none" x1="728" x2="728" y1="401" y2="399"/>
<line clip-path="url(#clipPath2)" fill="none" x1="749" x2="749" y1="20" y2="22"/>
<line clip-path="url(#clipPath2)" fill="none" x1="749" x2="749" y1="401" y2="399"/>
<line clip-path="url(#clipPath2)" fill="none" x1="770" x2="770" y1="18" y2="22"/>
<line clip-path="url(#clipPath2)" fill="none" x1="770" x2="770" y1="403" y2="399"/>
<text font-size="11" x="764" y="14" clip-path="url(#clipPath2)" stroke="none" xml:space="preserve">3.5</text>
<text font-size="11" x="764" y="415" clip-path="url(#clipPath2)" stroke="none" xml:space="preserve">3.5</text>
<line clip-path="url(#clipPath2)" fill="none" x1="791" x2="791" y1="20" y2="22"/>
<line clip-path="url(#clipPath2)" fill="none" x1="791" x2="791" y1="401" y2="399"/>
<line clip-path="url(#clipPath2)" fill="none" x1="812" x2="812" y1="20" y2="22"/>
<line clip-path="url(#clipPath2)" fill="none" x1="812" x2="812" y1="401" y2="399"/>
<line clip-path="url(#clipPath2)" fill="none" x1="833" x2="833" y1="20" y2="22"/>
<line clip-path="url(#clipPath2)" fill="none" x1="833" x2="833" y1="401" y2="399"/>
<line clip-path="url(#clipPath2)" fill="none" x1="854" x2="854" y1="20" y2="22"/>
<line clip-path="url(#clipPath2)" fill="none" x1="854" x2="854" y1="401" y2="399"/>
<line clip-path="url(#clipPath2)" fill="none" x1="875" x2="875" y1="18" y2="22"/>
<line clip-path="url(#clipPath2)" fill="none" x1="875" x2="875" y1="403" y2="399"/>
<text font-size="11" x="869" y="14" clip-path="url(#clipPath2)" stroke="none" xml:space="preserve">4.0</text>
<text font-size="11" x="869" y="415" clip-path="url(#clipPath2)" stroke="none" xml:space="preserve">4.0</text>
<line clip-path="url(#clipPath2)" fill="none" x1="36" x2="36" y1="24" y2="397"/>
<line clip-path="url(#clipPath2)" fill="none" x1="888" x2="888" y1="24" y2="397"/>
<line clip-path="url(#clipPath2)" fill="none" x1="32" x2="36" y1="397" y2="397"/>
<line clip-path="url(#clipPath2)" fill="none" x1="892" x2="888" y1="397" y2="397"/>
<text font-size="11" x="26" y="401" clip-path="url(#clipPath2)" stroke="none" xml:space="preserve">0</text>
<text font-size="11" x="895" y="401" clip-path="url(#clipPath2)" stroke="none" xml:space="preserve">0</text>
<line clip-path="url(#clipPath2)" fill="none" x1="34" x2="36" y1="365" y2="365"/>
<line clip-path="url(#clipPath2)" fill="none" x1="890" x2="888" y1="365" y2="365"/>
<line clip-path="url(#clipPath2)" fill="none" x1="32" x2="36" y1="334" y2="334"/>
<line clip-path="url(#clipPath2)" fill="none" x1="892" x2="888" y1="334" y2="334"/>
<text font-size="11" x="16" y="338" clip-path="url(#clipPath2)" stroke="none" xml:space="preserve">200</text>
<text font-size="11" x="895" y="338" clip-path="url(#clipPath2)" stroke="none" xml:space="preserve">200</text>
<line clip-path="url(#clipPath2)" fill="none" x1="34" x2="36" y1="303" y2="303"/>
<line clip-path="url(#clipPath2)" fill="none" x1="890" x2="888" y1="303" y2="303"/>
<line clip-path="url(#clipPath2)" fill="none" x1="32" x2="36" y1="272" y2="272"/>
<line clip-path="url(#clipPath2)" fill="none" x1="892" x2="888" y1="272" y2="272"/>
<text font-size="11" x="16" y="276" clip-path="url(#clipPath2)" stroke="none" xml:space="preserve">400</text>
<text font-size="11" x="895" y="276" clip-path="url(#clipPath2)" stroke="none" xml:space="preserve">400</text>
<line clip-path="url(#clipPath2)" fill="none" x1="34" x2="36" y1="241" y2="241"/>
<line clip-path="url(#clipPath2)" fill="none" x1="890" x2="888" y1="241" y2="241"/>
<line clip-path="url(#clipPath2)" fill="none" x1="32" x2="36" y1="210" y2="210"/>
<line clip-path="url(#clipPath2)" fill="none" x1="892" x2="888" y1="210" y2="210"/>
<text font-size="11" x="16" y="214" clip-path="url(#clipPath2)" stroke="none" xml:space="preserve">600</text>
<text font-size="11" x="895" y="214" clip-path="url(#clipPath2)" stroke="none" xml:space="preserve">600</text>
<line clip-path="url(#clipPath2)" fill="none" x1="34" x2="36" y1="179" y2="179"/>
<line clip-path="url(#clipPath2)" fill="none" x1="890" x2="888" y1="179" y2="179"/>
<line clip-path="url(#clipPath2)" fill="none" x1="32" x2="36" y1="148" y2="148"/>
<line clip-path="url(#clipPath2)" fill="none" x1="892" x2="888" y1="148" y2="148"/>
<text font-size="11" x="16" y="152" clip-path="url(#clipPath2)" stroke="none" xml:space="preserve">800</text>
<text font-size="11" x="895" y="152" clip-path="url(#clipPath2)" stroke="none" xml:space="preserve">800</text>
<line clip-path="url(#clipPath2)" fill="none" x1="34" x2="36" y1="117" y2="117"/>
<line clip-path="url(#clipPath2)" fill="none" x1="890" x2="888" y1="117" y2="117"/>
<line clip-path="url(#clipPath2)" fill="none" x1="32" x2="36" y1="86" y2="86"/>
<line clip-path="url(#clipPath2)" fill="none" x1="892" x2="888" y1="86" y2="86"/>
<text font-size="11" x="11" y="90" clip-path="url(#clipPath2)" stroke="none" xml:space="preserve">1000</text>
<text font-size="11" x="895" y="90" clip-path="url(#clipPath2)" stroke="none" xml:space="preserve">1000</text>
<line clip-path="url(#clipPath2)" fill="none" x1="34" x2="36" y1="55" y2="55"/>
<line clip-path="url(#clipPath2)" fill="none" x1="890" x2="888" y1="55" y2="55"/>
<line clip-path="url(#clipPath2)" fill="none" x1="32" x2="36" y1="24" y2="24"/>
<line clip-path="url(#clipPath2)" fill="none" x1="892" x2="888" y1="24" y2="24"/>
<text font-size="11" x="11" y="28" clip-path="url(#clipPath2)" stroke="none" xml:space="preserve">1200</text>
<text font-size="11" x="895" y="28" clip-path="url(#clipPath2)" stroke="none" xml:space="preserve">1200</text>
</g>
</g>
</svg>
